HIERARCHY
ROOT Hips
{
 OFFSET 0.000000 0.000000 0.000000
 CHANNELS 6 Xposition Yposition Zposition Yrotation Xrotation Zrotation
 JOINT Chest
 {
  OFFSET 0.000000 11.395451 -0.039534
  CHANNELS 3 Yrotation Xrotation Zrotation
  JOINT Chest2
  {
   OFFSET 0.000000 9.398669 0.071813
   CHANNELS 3 Yrotation Xrotation Zrotation
   JOINT Chest3
   {
    OFFSET 0.000000 8.489801 0.000000
    CHANNELS 3 Yrotation Xrotation Zrotation
    JOINT Chest4
    {
     OFFSET 0.000000 8.489801 0.000000
     CHANNELS 3 Yrotation Xrotation Zrotation
     JOINT Neck
     {
      OFFSET 0.000000 12.404889 0.000000
      CHANNELS 3 Yrotation Xrotation Zrotation
      JOINT Head
      {
       OFFSET 0.000000 8.903270 0.092239
       CHANNELS 3 Yrotation Xrotation Zrotation
       End Site
       {
        OFFSET 0.000000 17.592497 0.007158
       }
      }
     }
     JOINT RightCollar
     {
      OFFSET -3.196775 6.966722 0.000000
      CHANNELS 3 Yrotation Xrotation Zrotation
      JOINT RightShoulder
      {
       OFFSET -15.955896 0.000000 0.000000
       CHANNELS 3 Yrotation Xrotation Zrotation
       JOINT RightElbow
       {
        OFFSET -24.792472 0.000000 0.000000
        CHANNELS 3 Yrotation Xrotation Zrotation
        JOINT RightWrist
        {
         OFFSET -20.900115 0.000000 0.025002
         CHANNELS 3 Yrotation Xrotation Zrotation
         End Site
         {
          OFFSET -16.056692 0.000000 0.000000
         }
        }
       }
      }
     }
     JOINT LeftCollar
     {
      OFFSET 3.196775 6.966722 0.000000
      CHANNELS 3 Yrotation Xrotation Zrotation
      JOINT LeftShoulder
      {
       OFFSET 15.955896 0.000000 0.000000
       CHANNELS 3 Yrotation Xrotation Zrotation
       JOINT LeftElbow
       {
        OFFSET 24.792472 0.000000 0.000000
        CHANNELS 3 Yrotation Xrotation Zrotation
        JOINT LeftWrist
        {
         OFFSET 20.900115 0.000000 0.025002
         CHANNELS 3 Yrotation Xrotation Zrotation
         End Site
         {
          OFFSET 16.056692 0.000000 0.000000
         }
        }
       }
      }
     }
    }
   }
  }
 }
 JOINT RightHip
 {
  OFFSET -9.568995 0.193718 0.019767
  CHANNELS 3 Yrotation Xrotation Zrotation
  JOINT RightKnee
  {
   OFFSET 0.000000 -56.649296 0.015402
   CHANNELS 3 Yrotation Xrotation Zrotation
   JOINT RightAnkle
   {
    OFFSET 0.000000 -41.365147 0.021264
    CHANNELS 3 Yrotation Xrotation Zrotation
    JOINT RightToe
    {
     OFFSET 0.000000 -7.465940 17.672538
     CHANNELS 3 Yrotation Xrotation Zrotation
     End Site
     {
      OFFSET 0.000000 -1.736315 7.837145
     }
    }
   }
  }
 }
 JOINT LeftHip
 {
  OFFSET 9.568995 0.193718 0.019767
  CHANNELS 3 Yrotation Xrotation Zrotation
  JOINT LeftKnee
  {
   OFFSET 0.000000 -56.649296 0.015402
   CHANNELS 3 Yrotation Xrotation Zrotation
   JOINT LeftAnkle
   {
    OFFSET 0.000000 -41.365147 0.021264
    CHANNELS 3 Yrotation Xrotation Zrotation
    JOINT LeftToe
    {
     OFFSET 0.000000 -7.465940 17.672538
     CHANNELS 3 Yrotation Xrotation Zrotation
     End Site
     {
      OFFSET 0.000000 -1.736315 7.837145
     }
    }
   }
  }
 }
}
MOTION
Frames: 11
Frame Time: 0.016667
67.449248 104.333675 305.646489 -145.876987 -3.267014 -0.515229 0.048264 6.630804 -0.887382 0.034112 2.946928 -0.394403 0.034112 2.946928 -0.394403 0.027482 2.210175 -0.295901 -1.414304 13.339636 0.995432 -3.082684 -11.369350 2.459173 6.994798 -1.777748 6.324928 11.669090 -20.748665 50.319716 30.349931 -34.055726 32.843677 -11.960355 -20.254538 4.808463 0.709685 3.167625 -4.320726 6.454560 -18.542045 -55.226543 -25.969847 -46.853509 -45.243288 14.347086 -24.278637 3.117428 7.157805 -6.878911 -2.887745 -10.323857 59.719853 -1.055324 23.263210 -1.535485 22.999148 -8.109453 -12.223433 -30.707821 12.481428 -10.993131 -7.460068 -7.251674 13.378824 -0.373430 9.517813 -1.197630 2.747743 0.000000 -0.000000 0.000000
66.479728 104.424029 304.571833 -146.241172 -3.509563 -0.263866 0.078757 6.739879 -0.996377 0.049445 2.995346 -0.443199 0.049452 2.995351 -0.443203 0.039259 2.246480 -0.332571 -1.375199 13.402239 0.858346 -2.951027 -11.259279 2.181616 6.934734 -2.186790 6.381641 12.984896 -19.754487 49.736397 30.591513 -34.792246 32.124619 -11.861233 -20.460376 4.852595 0.787811 2.945821 -4.358333 6.077142 -18.394532 -54.946278 -25.799244 -46.771108 -45.389608 14.127576 -24.474842 3.088817 6.010354 -8.827534 -3.597017 -7.526490 63.095026 0.000972 21.724218 -1.258026 22.521415 -7.001400 -7.953361 -21.749962 12.710665 -10.225565 -7.669216 -6.452888 14.237221 -0.117837 9.074114 -2.314583 2.875603 0.000000 0.000000 0.000000
65.533606 104.510227 303.547341 -146.551751 -3.773153 -0.004629 0.065013 6.852546 -1.092862 0.045022 3.045444 -0.485795 0.045031 3.045452 -0.485799 0.036193 2.284056 -0.364490 -1.313724 13.491728 0.759679 -2.792115 -11.098272 1.967183 6.879889 -2.833015 6.561890 14.429586 -18.488388 49.067634 30.851323 -35.559748 31.213233 -11.752685 -20.701042 4.957687 0.839447 2.525283 -4.429574 5.805525 -18.126302 -54.720063 -25.629351 -46.548387 -45.485587 13.819786 -24.696531 3.072947 4.885182 -10.742543 -4.146445 -3.855783 65.864876 1.940043 19.297460 -2.013059 20.954531 -3.310833 -3.061329 -9.252995 11.913280 -9.547985 -7.750775 -3.838957 14.964980 0.397533 7.829376 -3.366322 2.906010 0.000000 0.000000 0.000000
64.629213 104.602582 302.527017 -146.585163 -4.012407 0.147747 -0.027083 6.955254 -1.131759 0.004977 3.091283 -0.501643 0.004977 3.091283 -0.501643 0.006271 2.318460 -0.376166 -1.263543 13.603428 0.702543 -2.671056 -10.894093 1.835552 6.817953 -3.258121 6.683216 15.213860 -17.806746 48.645076 30.941929 -35.956319 30.645409 -11.691017 -20.824517 5.057904 0.853293 2.267102 -4.502873 5.496840 -18.014588 -54.639327 -25.502351 -46.390196 -45.443404 13.532887 -24.864070 3.084927 3.943038 -12.554559 -4.543675 -1.043568 67.831501 3.473616 17.272080 -2.808405 19.197762 0.000000 0.000000 0.000000 10.983855 -8.880468 -7.753437 -1.803931 15.551512 0.753382 6.960225 -4.343843 2.978015 0.000000 0.000000 0.000000
63.782202 104.707133 301.495487 -146.179968 -4.214815 0.117144 -0.239673 7.049035 -1.078988 -0.089914 3.133414 -0.474956 -0.089923 3.133403 -0.474953 -0.064992 2.350122 -0.355663 -1.238019 13.742808 0.700407 -2.618129 -10.636094 1.817202 6.744811 -3.224312 6.655763 14.898568 -18.248529 48.614442 30.735756 -35.734209 30.700249 -11.716294 -20.725718 5.132980 0.799314 2.357028 -4.568823 5.089772 -18.206184 -54.775032 -25.452801 -46.406977 -45.187983 13.293059 -24.937225 3.140952 3.187899 -14.244001 -4.777162 -0.758275 68.952733 3.123852 16.231487 -3.249214 17.320753 0.835570 0.774667 2.312396 10.152275 -8.207276 -7.643681 -1.392412 16.024611 0.735302 7.062598 -5.241461 3.125902 0.000000 0.000000 0.000000
62.976920 104.817841 300.468123 -145.495722 -4.392627 -0.024001 -0.530410 7.133130 -0.968304 -0.220373 3.171347 -0.421322 -0.220379 3.171339 -0.421319 -0.163057 2.378657 -0.314764 -1.223529 13.904611 0.740322 -2.602192 -10.334909 1.882056 6.664880 -2.970633 6.565176 13.936977 -19.286992 48.806087 30.363912 -35.142158 31.098489 -11.786816 -20.508733 5.204926 0.705407 2.609242 -4.638919 4.643975 -18.559061 -55.046617 -25.447655 -46.488625 -44.792416 13.076159 -24.956633 3.221895 2.598028 -15.811630 -4.903082 -2.023088 69.312135 1.631060 15.646195 -3.708313 15.193467 0.404015 0.386872 1.159829 9.192529 -7.536942 -7.443801 -1.575072 16.374512 0.557282 7.540857 -6.061130 3.283590 0.000000 0.000000 0.000000
62.184741 104.926910 299.445047 -144.790035 -4.540096 -0.167620 -0.806625 7.191670 -0.855991 -0.344482 3.197774 -0.367145 -0.344482 3.197774 -0.367145 -0.256372 2.398539 -0.273483 -1.213143 14.067996 0.785987 -2.596097 -10.030495 1.959252 6.582384 -2.755538 6.488076 12.916105 -20.199530 48.993386 30.009618 -34.532117 31.559868 -11.836688 -20.334640 5.272369 0.645743 2.828045 -4.714959 4.198384 -18.915803 -55.318221 -25.425576 -46.508873 -44.391776 12.917201 -24.964893 3.287395 2.302147 -17.216868 -5.041284 -2.833314 68.971479 0.794409 15.081859 -4.239971 13.341281 0.000000 0.000000 0.000000 8.308872 -6.822236 -7.259742 -1.640170 16.571342 0.449977 7.785704 -6.802190 3.419545 0.000000 0.000000 0.000000
61.386414 105.035693 298.424567 -144.150455 -4.660741 -0.283398 -1.034502 7.207489 -0.752957 -0.447112 3.204994 -0.317870 -0.447107 3.204993 -0.317869 -0.333573 2.403979 -0.235993 -1.203268 14.239408 0.826872 -2.588731 -9.711296 2.027309 6.499506 -2.654247 6.450815 11.903426 -20.802149 49.097764 29.690533 -33.965283 32.101187 -11.867215 -20.230495 5.338582 0.661242 2.947916 -4.811956 3.777370 -19.223856 -55.577977 -25.358319 -46.402247 -44.013279 12.843038 -24.971391 3.319570 2.464166 -18.437060 -5.257962 -2.367018 67.945101 1.494550 14.293551 -4.844995 11.939726 0.000000 0.000000 0.000000 7.585120 -6.014504 -7.128844 -1.279265 16.551672 0.526144 7.506704 -7.445037 3.529360 0.000000 0.000000 0.000000
60.601191 105.142835 297.408374 -143.489764 -4.751397 -0.400568 -1.248020 7.197470 -0.648399 -0.543461 3.200607 -0.268200 -0.543456 3.200609 -0.268200 -0.406078 2.400700 -0.198249 -1.197447 14.412270 0.873946 -2.591194 -9.389091 2.108462 6.414839 -2.591366 6.427203 10.838370 -21.280888 49.179976 29.388302 -33.380682 32.707469 -11.878008 -20.169386 5.399936 0.711721 3.035107 -4.914098 3.358806 -19.533653 -55.842793 -25.272405 -46.233883 -43.630595 12.826936 -24.967478 3.336181 2.927897 -19.492238 -5.503806 -1.686236 66.215861 2.629300 13.526249 -5.472609 10.775825 0.000000 0.000000 0.000000 6.936354 -5.164421 -7.008599 -0.798356 16.378923 0.666347 6.992342 -8.010390 3.631382 0.000000 -0.000000 0.000000
59.858201 105.236476 296.401655 -142.804153 -4.799280 -0.498801 -1.456020 7.197112 -0.565673 -0.637015 3.200473 -0.228276 -0.637015 3.200473 -0.228276 -0.476441 2.400596 -0.167824 -1.199375 14.546317 0.922727 -2.609784 -9.138661 2.196857 6.328881 -2.599307 6.415229 10.139480 -21.476836 49.168558 29.208284 -32.956364 33.076017 -11.802389 -20.232235 5.444551 0.750482 3.091352 -4.976896 2.911251 -19.840024 -56.023310 -25.184525 -46.072789 -43.301537 12.823074 -24.968847 3.351152 3.343602 -20.410523 -5.708207 -1.407455 63.846641 3.242037 13.040097 -6.085404 9.800885 0.000000 -0.000000 0.000000 6.310411 -4.376854 -6.886510 -0.403286 16.219268 0.755109 6.501378 -8.558565 3.736869 0.000000 0.000000 0.000000
59.179334 105.315818 295.408874 -142.080183 -4.802043 -0.579155 -1.666115 7.222725 -0.513163 -0.730985 3.211911 -0.201624 -0.730988 3.211905 -0.201623 -0.547038 2.409170 -0.147332 -1.206113 14.623367 0.979212 -2.641904 -8.993618 2.303176 6.231266 -2.733846 6.432433 10.072958 -21.221036 48.996449 29.209007 -32.818812 33.031547 -11.610228 -20.491776 5.487030 0.751683 3.112454 -4.971277 2.464264 -20.158302 -56.098783 -25.102637 -45.924597 -43.064566 12.830154 -24.972586 3.369773 3.538806 -21.233402 -5.811399 -1.631536 60.883440 3.059965 13.058716 -6.748343 8.989036 0.000000 -0.000000 -0.000000 5.729288 -3.683743 -6.739751 -0.226554 16.121938 0.738195 6.117523 -9.098486 3.850981 0.000000 0.000000 0.000000
